{"asset":{"version":"2.0","generator":"babylon.js glTF exporter for Autodesk MAYA 2022.5 v20241031.4"},"scene":0,"scenes":[{"nodes":[0]}],"nodes":[{"children":[1,2,3,4,5,6,7,8,9,10,11,12,13,14,15,16,17,18,19,20,21],"translation":[-5.26719952,1.51554179,-1.47080743],"rotation":[-0.5,0.49999997,0.5,0.5],"scale":[159.6265,159.6265,159.6265],"name":"root"},{"mesh":0,"translation":[0.0,0.0,-5.96046434E-10],"rotation":[0.7071068,0.0,0.0,0.7071067],"name":"Baseboard_breakfast_room_InteriorFBXASC046011"},{"mesh":1,"translation":[0.0,0.0,-5.96046434E-10],"rotation":[0.7071068,0.0,0.0,0.7071067],"name":"Blinds_breakfast_room"},{"mesh":2,"translation":[0.0,0.0,-5.96046434E-10],"rotation":[0.7071068,0.0,0.0,0.7071067],"name":"breakfast_room_Ceiling"},{"mesh":3,"translation":[0.0,0.0,-5.96046434E-10],"rotation":[0.7071068,0.0,0.0,0.7071067],"name":"breakfast_room_Floor"},{"mesh":4,"translation":[0.0,0.0,-5.96046434E-10],"rotation":[0.7071068,0.0,0.0,0.7071067],"name":"breakfast_room_Wall_East"},{"mesh":5,"translation":[0.0,0.0,-5.96046434E-10],"rotation":[0.7071068,0.0,0.0,0.7071067],"name":"breakfast_room_Wall_North"},{"mesh":6,"translation":[0.0,0.0,-5.96046434E-10],"rotation":[0.7071068,0.0,0.0,0.7071067],"name":"breakfast_room_Wall_South"},{"mesh":7,"translation":[0.0,0.0,-5.96046434E-10],"rotation":[0.7071068,0.0,0.0,0.7071067],"name":"breakfast_room_Wall_West"},{"mesh":8,"translation":[0.0,0.0,-5.96046434E-10],"rotation":[0.7071068,0.0,0.0,0.7071067],"name":"Chair_feet_breakfast_room_InteriorFBXASC046005"},{"mesh":9,"translation":[0.0,0.0,-5.96046434E-10],"rotation":[0.7071068,0.0,0.0,0.7071067],"name":"Chair_Legs_breakfast_room_InteriorFBXASC046002"},{"mesh":10,"translation":[0.0,0.0,-5.96046434E-10],"rotation":[0.7071068,0.0,0.0,0.7071067],"name":"Chair_seats_and_light_fixture_breakfast_room_InteriorFBXASC046004"},{"mesh":11,"translation":[0.0,0.0,-5.96046434E-10],"rotation":[0.7071068,0.0,0.0,0.7071067],"name":"Light_shades_breakfast_room_InteriorFBXASC046010"},{"mesh":12,"translation":[0.0,0.0,-5.96046434E-10],"rotation":[0.7071068,0.0,0.0,0.7071067],"name":"Plates_breakfast_room_InteriorFBXASC046101"},{"mesh":13,"translation":[0.0,0.0,-5.96046434E-10],"rotation":[0.7071068,0.0,0.0,0.7071067],"name":"Plates_top_material_breakfast_room_InteriorFBXASC046001"},{"mesh":14,"translation":[0.0,0.0,-5.96046434E-10],"rotation":[0.7071068,0.0,0.0,0.7071067],"name":"Table_Legs_breakfast_room_InteriorFBXASC046003"},{"mesh":15,"translation":[0.0,0.0,-5.96046434E-10],"rotation":[0.7071068,0.0,0.0,0.7071067],"name":"tabletop_breakfast_room_InteriorFBXASC046069"},{"mesh":16,"translation":[0.0,0.0,-5.96046434E-10],"rotation":[0.7071068,0.0,0.0,0.7071067],"name":"Tea_set_metal_rim_breakfast_room_InteriorFBXASC046008"},{"mesh":17,"translation":[0.0,0.0,-5.96046434E-10],"rotation":[0.7071068,0.0,0.0,0.7071067],"name":"Teacups_breakfast_room_InteriorFBXASC046083"},{"mesh":18,"translation":[0.0,0.0,-5.96046434E-10],"rotation":[0.7071068,0.0,0.0,0.7071067],"name":"Teapot_and_Water_Pitcher_breakfast_room_InteriorFBXASC046009"},{"mesh":19,"translation":[0.0,0.0,-5.96046434E-10],"rotation":[0.7071068,0.0,0.0,0.7071067],"name":"Teaspoons_breakfast_room_InteriorFBXASC046012"},{"mesh":20,"translation":[0.0,0.0,-5.96046434E-10],"rotation":[0.7071068,0.0,0.0,0.7071067],"name":"wall_art_breakfast_room_InteriorFBXASC046075"}],"meshes":[{"primitives":[{"attributes":{"POSITION":1,"TANGENT":2,"NORMAL":3,"TEXCOORD_0":4},"indices":0,"material":0}],"name":"Baseboard_breakfast_room_InteriorFBXASC046011"},{"primitives":[{"attributes":{"POSITION":6,"TANGENT":7,"NORMAL":8,"TEXCOORD_0":9},"indices":5,"material":1}],"name":"Blinds_breakfast_room"},{"primitives":[{"attributes":{"POSITION":11,"TANGENT":12,"NORMAL":13,"TEXCOORD_0":14},"indices":10,"material":1}],"name":"breakfast_room_Ceiling"},{"primitives":[{"attributes":{"POSITION":16,"TANGENT":17,"NORMAL":18,"TEXCOORD_0":19},"indices":15,"material":2}],"name":"breakfast_room_Floor"},{"primitives":[{"attributes":{"POSITION":21,"TANGENT":22,"NORMAL":23,"TEXCOORD_0":24},"indices":20,"material":1}],"name":"breakfast_room_Wall_East"},{"primitives":[{"attributes":{"POSITION":26,"TANGENT":27,"NORMAL":28,"TEXCOORD_0":29},"indices":25,"material":1}],"name":"breakfast_room_Wall_North"},{"primitives":[{"attributes":{"POSITION":31,"TANGENT":32,"NORMAL":33,"TEXCOORD_0":34},"indices":30,"material":1}],"name":"breakfast_room_Wall_South"},{"primitives":[{"attributes":{"POSITION":36,"TANGENT":37,"NORMAL":38,"TEXCOORD_0":39},"indices":35,"material":1}],"name":"breakfast_room_Wall_West"},{"primitives":[{"attributes":{"POSITION":41,"TANGENT":42,"NORMAL":43,"TEXCOORD_0":44},"indices":40,"material":3}],"name":"Chair_feet_breakfast_room_InteriorFBXASC046005"},{"primitives":[{"attributes":{"POSITION":46,"TANGENT":47,"NORMAL":48,"TEXCOORD_0":49},"indices":45,"material":4}],"name":"Chair_Legs_breakfast_room_InteriorFBXASC046002"},{"primitives":[{"attributes":{"POSITION":51,"TANGENT":52,"NORMAL":53,"TEXCOORD_0":54},"indices":50,"material":5}],"name":"Chair_seats_and_light_fixture_breakfast_room_InteriorFBXASC046004"},{"primitives":[{"attributes":{"POSITION":56,"TANGENT":57,"NORMAL":58,"TEXCOORD_0":59},"indices":55,"material":6}],"name":"Light_shades_breakfast_room_InteriorFBXASC046010"},{"primitives":[{"attributes":{"POSITION":61,"TANGENT":62,"NORMAL":63,"TEXCOORD_0":64},"indices":60,"material":7}],"name":"Plates_breakfast_room_InteriorFBXASC046101"},{"primitives":[{"attributes":{"POSITION":66,"TANGENT":67,"NORMAL":68,"TEXCOORD_0":69},"indices":65,"material":8}],"name":"Plates_top_material_breakfast_room_InteriorFBXASC046001"},{"primitives":[{"attributes":{"POSITION":71,"TANGENT":72,"NORMAL":73,"TEXCOORD_0":74},"indices":70,"material":9}],"name":"Table_Legs_breakfast_room_InteriorFBXASC046003"},{"primitives":[{"attributes":{"POSITION":76,"TANGENT":77,"NORMAL":78,"TEXCOORD_0":79},"indices":75,"material":10}],"name":"tabletop_breakfast_room_InteriorFBXASC046069"},{"primitives":[{"attributes":{"POSITION":81,"TANGENT":82,"NORMAL":83,"TEXCOORD_0":84},"indices":80,"material":11}],"name":"Tea_set_metal_rim_breakfast_room_InteriorFBXASC046008"},{"primitives":[{"attributes":{"POSITION":86,"TANGENT":87,"NORMAL":88,"TEXCOORD_0":89},"indices":85,"material":7}],"name":"Teacups_breakfast_room_InteriorFBXASC046083"},{"primitives":[{"attributes":{"POSITION":91,"TANGENT":92,"NORMAL":93,"TEXCOORD_0":94},"indices":90,"material":12}],"name":"Teapot_and_Water_Pitcher_breakfast_room_InteriorFBXASC046009"},{"primitives":[{"attributes":{"POSITION":96,"TANGENT":97,"NORMAL":98,"TEXCOORD_0":99},"indices":95,"material":13}],"name":"Teaspoons_breakfast_room_InteriorFBXASC046012"},{"primitives":[{"attributes":{"POSITION":101,"TANGENT":102,"NORMAL":103,"TEXCOORD_0":104},"indices":100,"material":14}],"name":"wall_art_breakfast_room_InteriorFBXASC046075"}],"accessors":[{"bufferView":0,"componentType":5123,"count":66,"type":"SCALAR","name":"accessorIndices"},{"bufferView":1,"componentType":5126,"count":44,"max":[0.0526333973,-0.01141165,-0.0450044],"min":[-0.06353185,-0.0141836088,-0.04532269],"type":"VEC3","name":"accessorPositions"},{"bufferView":2,"componentType":5126,"count":44,"type":"VEC4","name":"accessorTangents"},{"bufferView":1,"byteOffset":528,"componentType":5126,"count":44,"type":"VEC3","name":"accessorNormals"},{"bufferView":3,"componentType":5126,"count":44,"type":"VEC2","name":"accessorUVs"},{"bufferView":0,"byteOffset":132,"componentType":5123,"count":612,"type":"SCALAR","name":"accessorIndices"},{"bufferView":1,"byteOffset":1056,"componentType":5126,"count":408,"max":[0.05263287,0.0677795,0.02913641],"min":[0.0503063276,0.0196002889,-0.0414011],"type":"VEC3","name":"accessorPositions"},{"bufferView":2,"byteOffset":704,"componentType":5126,"count":408,"type":"VEC4","name":"accessorTangents"},{"bufferView":1,"byteOffset":5952,"componentType":5126,"count":408,"type":"VEC3","name":"accessorNormals"},{"bufferView":3,"byteOffset":352,"componentType":5126,"count":408,"type":"VEC2","name":"accessorUVs"},{"bufferView":0,"byteOffset":1356,"componentType":5123,"count":36,"type":"SCALAR","name":"accessorIndices"},{"bufferView":1,"byteOffset":10848,"componentType":5126,"count":24,"max":[0.0513302162,0.0811245739,0.098883234],"min":[-0.06305749,0.07840473,-0.04501718],"type":"VEC3","name":"accessorPositions"},{"bufferView":2,"byteOffset":7232,"componentType":5126,"count":24,"type":"VEC4","name":"accessorTangents"},{"bufferView":1,"byteOffset":11136,"componentType":5126,"count":24,"type":"VEC3","name":"accessorNormals"},{"bufferView":3,"byteOffset":3616,"componentType":5126,"count":24,"type":"VEC2","name":"accessorUVs"},{"bufferView":0,"byteOffset":1428,"componentType":5123,"count":36,"type":"SCALAR","name":"accessorIndices"},{"bufferView":1,"byteOffset":11424,"componentType":5126,"count":24,"max":[0.0513302162,-0.01419957,0.09888323],"min":[-0.06305749,-0.01739211,-0.04539604],"type":"VEC3","name":"accessorPositions"},{"bufferView":2,"byteOffset":7616,"componentType":5126,"count":24,"type":"VEC4","name":"accessorTangents"},{"bufferView":1,"byteOffset":11712,"componentType":5126,"count":24,"type":"VEC3","name":"accessorNormals"},{"bufferView":3,"byteOffset":3808,"componentType":5126,"count":24,"type":"VEC2","name":"accessorUVs"},{"bufferView":0,"byteOffset":1500,"componentType":5123,"count":96,"type":"SCALAR","name":"accessorIndices"},{"bufferView":1,"byteOffset":12000,"componentType":5126,"count":49,"max":[0.05405004,0.0811245739,0.101603068],"min":[0.0513302162,-0.01739211,-0.04773702],"type":"VEC3","name":"accessorPositions"},{"bufferView":2,"byteOffset":8000,"componentType":5126,"count":49,"type":"VEC4","name":"accessorTangents"},{"bufferView":1,"byteOffset":12588,"componentType":5126,"count":49,"type":"VEC3","name":"accessorNormals"},{"bufferView":3,"byteOffset":4000,"componentType":5126,"count":49,"type":"VEC2","name":"accessorUVs"},{"bufferView":0,"byteOffset":1692,"componentType":5123,"count":36,"type":"SCALAR","name":"accessorIndices"},{"bufferView":1,"byteOffset":13176,"componentType":5126,"count":24,"max":[0.0513302162,0.0811245739,-0.04501718],"min":[-0.06305749,-0.01739208,-0.04773702],"type":"VEC3","name":"accessorPositions"},{"bufferView":2,"byteOffset":8784,"componentType":5126,"count":24,"type":"VEC4","name":"accessorTangents"},{"bufferView":1,"byteOffset":13464,"componentType":5126,"count":24,"type":"VEC3","name":"accessorNormals"},{"bufferView":3,"byteOffset":4392,"componentType":5126,"count":24,"type":"VEC2","name":"accessorUVs"},{"bufferView":0,"byteOffset":1764,"componentType":5123,"count":36,"type":"SCALAR","name":"accessorIndices"},{"bufferView":1,"byteOffset":13752,"componentType":5126,"count":24,"max":[0.05133021,0.0811245441,0.101603061],"min":[-0.06305749,-0.01739211,0.09888323],"type":"VEC3","name":"accessorPositions"},{"bufferView":2,"byteOffset":9168,"componentType":5126,"count":24,"type":"VEC4","name":"accessorTangents"},{"bufferView":1,"byteOffset":14040,"componentType":5126,"count":24,"type":"VEC3","name":"accessorNormals"},{"bufferView":3,"byteOffset":4584,"componentType":5126,"count":24,"type":"VEC2","name":"accessorUVs"},{"bufferView":0,"byteOffset":1836,"componentType":5123,"count":36,"type":"SCALAR","name":"accessorIndices"},{"bufferView":1,"byteOffset":14328,"componentType":5126,"count":24,"max":[-0.06305749,0.0811245739,0.101603061],"min":[-0.06577731,-0.01739211,-0.04773702],"type":"VEC3","name":"accessorPositions"},{"bufferView":2,"byteOffset":9552,"componentType":5126,"count":24,"type":"VEC4","name":"accessorTangents"},{"bufferView":1,"byteOffset":14616,"componentType":5126,"count":24,"type":"VEC3","name":"accessorNormals"},{"bufferView":3,"byteOffset":4776,"componentType":5126,"count":24,"type":"VEC2","name":"accessorUVs"},{"bufferView":0,"byteOffset":1908,"componentType":5123,"count":41760,"type":"SCALAR","name":"accessorIndices"},{"bufferView":1,"byteOffset":14904,"componentType":5126,"count":25558,"max":[0.03148279,-0.01394907,0.00435456],"min":[-0.0437948778,-0.01412572,-0.04070936],"type":"VEC3","name":"accessorPositions"},{"bufferView":2,"byteOffset":9936,"componentType":5126,"count":25558,"type":"VEC4","name":"accessorTangents"},{"bufferView":1,"byteOffset":321600,"componentType":5126,"count":25558,"type":"VEC3","name":"accessorNormals"},{"bufferView":3,"byteOffset":4968,"componentType":5126,"count":25558,"type":"VEC2","name":"accessorUVs"},{"bufferView":0,"byteOffset":85428,"componentType":5125,"count":260640,"type":"SCALAR","name":"accessorIndices"},{"bufferView":1,"byteOffset":628296,"componentType":5126,"count":162095,"max":[0.031294,-0.00180333992,0.00416577],"min":[-0.04360608,-0.0139492,-0.0405205674],"type":"VEC3","name":"accessorPositions"},{"bufferView":2,"byteOffset":418864,"componentType":5126,"count":162095,"type":"VEC4","name":"accessorTangents"},{"bufferView":1,"byteOffset":2573436,"componentType":5126,"count":162095,"type":"VEC3","name":"accessorNormals"},{"bufferView":3,"byteOffset":209432,"componentType":5126,"count":162095,"type":"VEC2","name":"accessorUVs"},{"bufferView":0,"byteOffset":1127988,"componentType":5125,"count":259584,"type":"SCALAR","name":"accessorIndices"},{"bufferView":1,"byteOffset":4518576,"componentType":5126,"count":142198,"max":[0.03438554,0.0788466558,0.00725731],"min":[-0.04669762,-0.00217029,-0.0436121076],"type":"VEC3","name":"accessorPositions"},{"bufferView":2,"byteOffset":3012384,"componentType":5126,"count":142198,"type":"VEC4","name":"accessorTangents"},{"bufferView":1,"byteOffset":6224952,"componentType":5126,"count":142198,"type":"VEC3","name":"accessorNormals"},{"bufferView":3,"byteOffset":1506192,"componentType":5126,"count":142198,"type":"VEC2","name":"accessorUVs"},{"bufferView":0,"byteOffset":2166324,"componentType":5123,"count":6336,"type":"SCALAR","name":"accessorIndices"},{"bufferView":1,"byteOffset":7931328,"componentType":5126,"count":4136,"max":[0.01542231,0.041877497,-0.01353742],"min":[-0.0278204,0.0363697,-0.02535339],"type":"VEC3","name":"accessorPositions"},{"bufferView":2,"byteOffset":5287552,"componentType":5126,"count":4136,"type":"VEC4","name":"accessorTangents"},{"bufferView":1,"byteOffset":7980960,"componentType":5126,"count":4136,"type":"VEC3","name":"accessorNormals"},{"bufferView":3,"byteOffset":2643776,"componentType":5126,"count":4136,"type":"VEC2","name":"accessorUVs"},{"bufferView":0,"byteOffset":2178996,"componentType":5123,"count":6480,"type":"SCALAR","name":"accessorIndices"},{"bufferView":1,"byteOffset":8030592,"componentType":5126,"count":3706,"max":[0.01873567,0.00942048,-0.00733982958],"min":[-0.0320286378,0.009090359,-0.02189678],"type":"VEC3","name":"accessorPositions"},{"bufferView":2,"byteOffset":5353728,"componentType":5126,"count":3706,"type":"VEC4","name":"accessorTangents"},{"bufferView":1,"byteOffset":8075064,"componentType":5126,"count":3706,"type":"VEC3","name":"accessorNormals"},{"bufferView":3,"byteOffset":2676864,"componentType":5126,"count":3706,"type":"VEC2","name":"accessorUVs"},{"bufferView":0,"byteOffset":2191956,"componentType":5123,"count":1440,"type":"SCALAR","name":"accessorIndices"},{"bufferView":1,"byteOffset":8119536,"componentType":5126,"count":770,"max":[0.01873567,0.00942048,-0.00733982958],"min":[-0.0320286378,0.00924892,-0.02189678],"type":"VEC3","name":"accessorPositions"},{"bufferView":2,"byteOffset":5413024,"componentType":5126,"count":770,"type":"VEC4","name":"accessorTangents"},{"bufferView":1,"byteOffset":8128776,"componentType":5126,"count":770,"type":"VEC3","name":"accessorNormals"},{"bufferView":3,"byteOffset":2706512,"componentType":5126,"count":770,"type":"VEC2","name":"accessorUVs"},{"bufferView":0,"byteOffset":2194836,"componentType":5123,"count":27000,"type":"SCALAR","name":"accessorIndices"},{"bufferView":1,"byteOffset":8138016,"componentType":5126,"count":17038,"max":[0.0218315087,0.00781486,-0.00698409975],"min":[-0.0346774273,-0.0142062791,-0.03109485],"type":"VEC3","name":"accessorPositions"},{"bufferView":2,"byteOffset":5425344,"componentType":5126,"count":17038,"type":"VEC4","name":"accessorTangents"},{"bufferView":1,"byteOffset":8342472,"componentType":5126,"count":17038,"type":"VEC3","name":"accessorNormals"},{"bufferView":3,"byteOffset":2712672,"componentType":5126,"count":17038,"type":"VEC2","name":"accessorUVs"},{"bufferView":0,"byteOffset":2248836,"componentType":5123,"count":132,"type":"SCALAR","name":"accessorIndices"},{"bufferView":1,"byteOffset":8546928,"componentType":5126,"count":96,"max":[0.02259861,0.00910284,-0.00615654],"min":[-0.035943158,0.00783907,-0.0321444981],"type":"VEC3","name":"accessorPositions"},{"bufferView":2,"byteOffset":5697952,"componentType":5126,"count":96,"type":"VEC4","name":"accessorTangents"},{"bufferView":1,"byteOffset":8548080,"componentType":5126,"count":96,"type":"VEC3","name":"accessorNormals"},{"bufferView":3,"byteOffset":2848976,"componentType":5126,"count":96,"type":"VEC2","name":"accessorUVs"},{"bufferView":0,"byteOffset":2249100,"componentType":5123,"count":23184,"type":"SCALAR","name":"accessorIndices"},{"bufferView":1,"byteOffset":8549232,"componentType":5126,"count":14363,"max":[0.01878161,0.01176043,-0.00729388],"min":[-0.0320744,0.00916042,-0.02194254],"type":"VEC3","name":"accessorPositions"},{"bufferView":2,"byteOffset":5699488,"componentType":5126,"count":14363,"type":"VEC4","name":"accessorTangents"},{"bufferView":1,"byteOffset":8721588,"componentType":5126,"count":14363,"type":"VEC3","name":"accessorNormals"},{"bufferView":3,"byteOffset":2849744,"componentType":5126,"count":14363,"type":"VEC2","name":"accessorUVs"},{"bufferView":0,"byteOffset":2295468,"componentType":5123,"count":68616,"type":"SCALAR","name":"accessorIndices"},{"bufferView":1,"byteOffset":8893944,"componentType":5126,"count":38661,"max":[0.018593289,0.01183606,-0.008222709],"min":[-0.0311773978,0.00916273,-0.02104554],"type":"VEC3","name":"accessorPositions"},{"bufferView":2,"byteOffset":5929296,"componentType":5126,"count":38661,"type":"VEC4","name":"accessorTangents"},{"bufferView":1,"byteOffset":9357876,"componentType":5126,"count":38661,"type":"VEC3","name":"accessorNormals"},{"bufferView":3,"byteOffset":2964648,"componentType":5126,"count":38661,"type":"VEC2","name":"accessorUVs"},{"bufferView":0,"byteOffset":2432700,"componentType":5123,"count":73488,"type":"SCALAR","name":"accessorIndices"},{"bufferView":1,"byteOffset":9821808,"componentType":5126,"count":42647,"max":[0.00265833,0.0192209,-0.01617929],"min":[-0.01157271,0.0089641,-0.02684617],"type":"VEC3","name":"accessorPositions"},{"bufferView":2,"byteOffset":6547872,"componentType":5126,"count":42647,"type":"VEC4","name":"accessorTangents"},{"bufferView":1,"byteOffset":10333572,"componentType":5126,"count":42647,"type":"VEC3","name":"accessorNormals"},{"bufferView":3,"byteOffset":3273936,"componentType":5126,"count":42647,"type":"VEC2","name":"accessorUVs"},{"bufferView":0,"byteOffset":2579676,"componentType":5123,"count":39168,"type":"SCALAR","name":"accessorIndices"},{"bufferView":1,"byteOffset":10845336,"componentType":5126,"count":22966,"max":[0.01900967,0.00949757,-0.00813661],"min":[-0.03228573,0.009226279,-0.02092442],"type":"VEC3","name":"accessorPositions"},{"bufferView":2,"byteOffset":7230224,"componentType":5126,"count":22966,"type":"VEC4","name":"accessorTangents"},{"bufferView":1,"byteOffset":11120928,"componentType":5126,"count":22966,"type":"VEC3","name":"accessorNormals"},{"bufferView":3,"byteOffset":3615112,"componentType":5126,"count":22966,"type":"VEC2","name":"accessorUVs"},{"bufferView":0,"byteOffset":2658012,"componentType":5123,"count":510,"type":"SCALAR","name":"accessorIndices"},{"bufferView":1,"byteOffset":11396520,"componentType":5126,"count":340,"max":[0.0045533,0.05543733,-0.0430823974],"min":[-0.01698083,0.02502443,-0.04505558],"type":"VEC3","name":"accessorPositions"},{"bufferView":2,"byteOffset":7597680,"componentType":5126,"count":340,"type":"VEC4","name":"accessorTangents"},{"bufferView":1,"byteOffset":11400600,"componentType":5126,"count":340,"type":"VEC3","name":"accessorNormals"},{"bufferView":3,"byteOffset":3798840,"componentType":5126,"count":340,"type":"VEC2","name":"accessorUVs"}],"bufferViews":[{"buffer":0,"byteLength":2659032,"name":"bufferViewScalar"},{"buffer":0,"byteOffset":2659032,"byteLength":11404680,"byteStride":12,"name":"bufferViewFloatVec3"},{"buffer":0,"byteOffset":14063712,"byteLength":7603120,"byteStride":16,"name":"bufferViewFloatVec4"},{"buffer":0,"byteOffset":21666832,"byteLength":3801560,"byteStride":8,"name":"bufferViewFloatVec2"}],"buffers":[{"uri":"BreakfastRoom.bin","byteLength":25468392}],"materials":[{"pbrMetallicRoughness":{"metallicFactor":0.0,"roughnessFactor":0.450053632},"name":"breakfast_room:Paint___White_Gloss"},{"pbrMetallicRoughness":{"baseColorFactor":[0.9,0.9,0.9,1.0],"metallicFactor":0.0,"roughnessFactor":0.450053632},"name":"breakfast_room:Paint___White_Matt"},{"pbrMetallicRoughness":{"baseColorTexture":{"index":0},"metallicFactor":0.0,"roughnessFactor":0.389465421},"name":"breakfast_room:Floor_Tiles"},{"pbrMetallicRoughness":{"baseColorFactor":[0.64,0.64,0.64,1.0],"metallicFactor":0.0,"roughnessFactor":0.293833345},"name":"breakfast_room:Black_Rubber"},{"pbrMetallicRoughness":{"baseColorFactor":[0.0,0.0,0.0,1.0],"metallicFactor":0.0,"roughnessFactor":0.291566133},"name":"breakfast_room:Chrome"},{"pbrMetallicRoughness":{"metallicFactor":0.0,"roughnessFactor":0.450053632},"name":"breakfast_room:White_Plastic"},{"pbrMetallicRoughness":{"baseColorFactor":[0.9,0.08,0.01,1.0],"metallicFactor":0.0,"roughnessFactor":0.450053632},"name":"breakfast_room:Frosted_Glass"},{"pbrMetallicRoughness":{"baseColorFactor":[0.5,0.5,0.5,1.0],"metallicFactor":0.0,"roughnessFactor":0.450053632},"name":"breakfast_room:Ceramic_001"},{"pbrMetallicRoughness":{"baseColorFactor":[0.5,0.5,0.5,1.0],"metallicFactor":0.0,"roughnessFactor":0.450053632},"name":"breakfast_room:Material_002"},{"pbrMetallicRoughness":{"baseColorFactor":[0.0,0.0,0.0,1.0],"metallicFactor":0.0,"roughnessFactor":0.450053632},"name":"breakfast_room:Paint___Black_Satin"},{"pbrMetallicRoughness":{"baseColorFactor":[0.7,0.7,0.7,1.0],"metallicFactor":0.0,"roughnessFactor":0.450053632},"name":"breakfast_room:White_Marble"},{"pbrMetallicRoughness":{"baseColorFactor":[0.2,0.1,0.0,1.0],"metallicFactor":0.0,"roughnessFactor":0.450053632},"name":"breakfast_room:Gold_Paint"},{"pbrMetallicRoughness":{"metallicFactor":0.0,"roughnessFactor":0.291566133},"name":"breakfast_room:Ceramic"},{"pbrMetallicRoughness":{"baseColorFactor":[0.8,0.8,0.8,1.0],"metallicFactor":0.0,"roughnessFactor":0.450053632},"name":"Material_005FBXASC046001"},{"pbrMetallicRoughness":{"baseColorTexture":{"index":1},"metallicFactor":0.0,"roughnessFactor":0.450053632},"name":"breakfast_room:Artwork"}],"textures":[{"sampler":0,"source":0,"name":"tiles.png"},{"sampler":0,"source":1,"name":"picture3.jpg"}],"images":[{"uri":"tiles.png"},{"uri":"picture3.jpg"}],"samplers":[{"magFilter":9729,"minFilter":9987}]}