{"asset":{"version":"2.0","generator":"babylon.js glTF exporter for Autodesk MAYA 2022.5 v20240312.5"},"scene":0,"scenes":[{"nodes":[0]}],"nodes":[{"children":[1,2,3],"scale":[60.0,60.0,60.0],"name":"root"},{"mesh":0,"translation":[0.0,-0.0005596008,0.0],"scale":[17.25336,0.303909421,17.25336],"name":"pCube1"},{"translation":[0.128926,0.406212,0.0194533672],"rotation":[0.292731464,-0.706351161,-0.4856268,-0.423725128],"scale":[9.615635,9.615635,9.615635],"name":"aiAreaLight1"},{"mesh":1,"translation":[0.0,0.07249454,0.0],"scale":[7.65743446,7.65743446,7.65743446],"name":"pCube6"}],"meshes":[{"primitives":[{"attributes":{"POSITION":1,"TANGENT":2,"NORMAL":3,"TEXCOORD_0":4},"indices":0,"material":0}],"name":"pCube1"},{"primitives":[{"attributes":{"POSITION":6,"TANGENT":7,"NORMAL":8,"TEXCOORD_0":9},"indices":5,"material":1}],"name":"pCube6"}],"accessors":[{"bufferView":0,"componentType":5123,"count":36,"type":"SCALAR","name":"accessorIndices"},{"bufferView":1,"componentType":5126,"count":36,"max":[0.005,0.005,0.005],"min":[-0.005,-0.005,-0.005],"type":"VEC3","name":"accessorPositions"},{"bufferView":2,"componentType":5126,"count":36,"type":"VEC4","name":"accessorTangents"},{"bufferView":1,"byteOffset":432,"componentType":5126,"count":36,"type":"VEC3","name":"accessorNormals"},{"bufferView":3,"componentType":5126,"count":36,"type":"VEC2","name":"accessorUVs"},{"bufferView":0,"byteOffset":72,"componentType":5123,"count":36,"type":"SCALAR","name":"accessorIndices"},{"bufferView":1,"byteOffset":864,"componentType":5126,"count":36,"max":[0.005,0.005,0.005],"min":[-0.005,-0.005,-0.005],"type":"VEC3","name":"accessorPositions"},{"bufferView":2,"byteOffset":576,"componentType":5126,"count":36,"type":"VEC4","name":"accessorTangents"},{"bufferView":1,"byteOffset":1296,"componentType":5126,"count":36,"type":"VEC3","name":"accessorNormals"},{"bufferView":3,"byteOffset":288,"componentType":5126,"count":36,"type":"VEC2","name":"accessorUVs"}],"bufferViews":[{"buffer":0,"byteLength":144,"name":"bufferViewScalar"},{"buffer":0,"byteOffset":144,"byteLength":1728,"byteStride":12,"name":"bufferViewFloatVec3"},{"buffer":0,"byteOffset":1872,"byteLength":1152,"byteStride":16,"name":"bufferViewFloatVec4"},{"buffer":0,"byteOffset":3024,"byteLength":576,"byteStride":8,"name":"bufferViewFloatVec2"}],"buffers":[{"uri":"BlueRedBoxAndPlane.bin","byteLength":3600}],"materials":[{"pbrMetallicRoughness":{"baseColorFactor":[0.042,0.0,1.0,1.0],"metallicFactor":0.0,"roughnessFactor":0.450053632},"name":"lambert31"},{"pbrMetallicRoughness":{"baseColorFactor":[1.0,0.0895,0.0,1.0],"metallicFactor":0.0,"roughnessFactor":0.450053632},"name":"lambert35"}]}